<?xml version="1.0" ?><svg id="Слой_1" style="enable-background:new 0 0 200 200;" version="1.1" viewBox="0 0 200 200" xml:space="preserve" xmlns="http://www.w3.org/2000/svg" xmlns:xlink="http://www.w3.org/1999/xlink"><style type="text/css">
	.st0{fill:url(#SVGID_1_);}
	.st1{fill:url(#SVGID_2_);}
	.st2{fill:url(#SVGID_3_);}
	.st3{fill:url(#SVGID_4_);}
	.st4{fill:url(#SVGID_5_);}
	.st5{fill:url(#SVGID_6_);}
	.st6{fill:url(#SVGID_7_);}
</style><g><linearGradient gradientTransform="matrix(0.5512 -0.8344 0.8344 0.5512 470.5147 217.3375)" gradientUnits="userSpaceOnUse" id="SVGID_1_" x1="-97.1298" x2="-76.5577" y1="-438.3578" y2="-438.3578"><stop offset="0" style="stop-color:#F7931E"/><stop offset="1" style="stop-color:#AF1259"/></linearGradient><circle class="st0" cx="56.9" cy="48.2" r="10.3"/><linearGradient gradientTransform="matrix(0.5512 -0.8344 0.8344 0.5512 470.5147 217.3375)" gradientUnits="userSpaceOnUse" id="SVGID_2_" x1="-98.8706" x2="-90.4607" y1="-461.2309" y2="-461.2309"><stop offset="0" style="stop-color:#F7931E"/><stop offset="1" style="stop-color:#AF1259"/></linearGradient><circle class="st1" cx="33.5" cy="42.1" r="4.2"/><linearGradient gradientTransform="matrix(0.5512 -0.8344 0.8344 0.5512 470.5147 217.3375)" gradientUnits="userSpaceOnUse" id="SVGID_3_" x1="-113.727" x2="-105.3171" y1="-282.1265" y2="-282.1265"><stop offset="0" style="stop-color:#F7931E"/><stop offset="1" style="stop-color:#AF1259"/></linearGradient><circle class="st2" cx="174.7" cy="153.2" r="4.2"/><linearGradient gradientTransform="matrix(0.5512 -0.8344 0.8344 0.5512 470.5147 217.3375)" gradientUnits="userSpaceOnUse" id="SVGID_4_" x1="-106.3225" x2="-89.6558" y1="-299.7344" y2="-299.7344"><stop offset="0" style="stop-color:#F7931E"/><stop offset="1" style="stop-color:#AF1259"/></linearGradient><circle class="st3" cx="166.4" cy="133.9" r="8.3"/><linearGradient gradientTransform="matrix(0.5512 -0.8344 0.8344 0.5512 470.5147 217.3375)" gradientUnits="userSpaceOnUse" id="SVGID_5_" x1="-175.6299" x2="-166.6731" y1="-329.0077" y2="-329.0077"><stop offset="0" style="stop-color:#F7931E"/><stop offset="1" style="stop-color:#AF1259"/></linearGradient><circle class="st4" cx="101.7" cy="178.8" r="4.5"/><linearGradient gradientTransform="matrix(0.5512 -0.8344 0.8344 0.5512 470.5147 217.3375)" gradientUnits="userSpaceOnUse" id="SVGID_6_" x1="-37.6042" x2="-28.6473" y1="-327.2292" y2="-327.2292"><stop offset="0" style="stop-color:#F7931E"/><stop offset="1" style="stop-color:#AF1259"/></linearGradient><circle class="st5" cx="179.2" cy="64.6" r="4.5"/><linearGradient gradientUnits="userSpaceOnUse" id="SVGID_7_" x1="14.2508" x2="171.3223" y1="95.7068" y2="95.7068"><stop offset="0" style="stop-color:#F7931E"/><stop offset="1" style="stop-color:#AF1259"/></linearGradient><path class="st6" d="M165.5,87.6c-0.1-0.1-0.2-0.2-0.3-0.3c-4.2-4.1-6.1-9.9-5-15.7c3.2-17.5-4.6-36.1-21.4-45.6   C120,15.2,95.8,20.3,82.7,37.7c-2.2,2.9-3.9,5.9-5.2,9.1c-5.4,12.7-16.2,22.1-29.2,26.6C37.6,76.9,28,84.1,21.6,94.6   c-13.9,22.6-7.5,52.7,14.4,67.7c15.5,10.6,34.9,11.3,50.6,3.6c5.5-2.7,11.7-3.2,17.6-1.7c14.7,3.9,30.8-1.7,39.6-15.1   c2.7-4.2,4.5-8.7,5.4-13.3c1.3-7.2,5.7-13.6,12-17.1c3.1-1.7,5.8-4.3,7.7-7.8C173.1,103.4,171.7,93.7,165.5,87.6z M117,99h-10.9   v36.9H89.7V99h-8.2V86.3h8.2v-7.6c0-10.4,4.6-16.5,17.7-16.5h10.9v12.7h-6.8c-5.1,0-5.4,1.8-5.4,5.1l0,6.4h12.4L117,99z"/></g></svg>