<?xml version="1.0" ?><svg id="Слой_1" style="enable-background:new 0 0 200 200;" version="1.1" viewBox="0 0 200 200" xml:space="preserve" xmlns="http://www.w3.org/2000/svg" xmlns:xlink="http://www.w3.org/1999/xlink"><style type="text/css">
	.st0{fill:url(#SVGID_1_);}
	.st1{fill:url(#SVGID_2_);}
	.st2{fill:url(#SVGID_3_);}
	.st3{fill:url(#SVGID_4_);}
</style><linearGradient gradientUnits="userSpaceOnUse" id="SVGID_1_" x1="15.8162" x2="176.3556" y1="100.4839" y2="100.4839"><stop offset="0" style="stop-color:#F7931E"/><stop offset="1" style="stop-color:#AF1259"/></linearGradient><path class="st0" d="M131.7,57.2c-5.6-1.7-10.3-5.7-13.3-10.8c-4.1-6.9-11.6-11.6-20.2-11.6c-0.8,0-1.5,0-2.2,0.1  c-5.7,0.5-11.3-1.5-15.5-5.4c-6.8-6.2-15.9-10-25.8-10c-20.9,0-38.7,17.7-38.7,38.7c0,9.6,3.5,18.3,9.2,25c3.6,4.2,3.7,10.3,0.6,15  c-2.8,4.2-4.3,9.4-3.8,14.9c0.9,10.5,8.9,19.3,19.3,21.1c0.1,0,0.2,0,0.2,0c6.1,1,11.3,4.9,13.9,10.5c10.5,22.5,33.8,37.7,60.5,36.5  c33.1-1.5,59.8-28.8,60.5-62C177,90.2,158,65.4,131.7,57.2z M80.5,130.8H65.9V85.7h14.6V130.8z M74.1,79.2L74.1,79.2  c-5,0-8.2-3.5-8.2-7.8c0-4.4,3.3-7.8,8.3-7.8c5,0,8.1,3.4,8.2,7.8C82.3,75.8,79.2,79.2,74.1,79.2z M134.1,131.8h-14.6v-24.1  c0-6.1-2.1-10.2-7.4-10.2c-4,0-6.4,2.8-7.5,5.5c-0.4,1-0.5,2.3-0.5,3.7v25.2H89.5c0,0,0.2-40.8,0-45.1h14.6v6.4  c1.9-3.1,5.4-7.4,13.2-7.4c9.6,0,16.8,6.4,16.8,20.3L134.1,131.8z"/><linearGradient gradientUnits="userSpaceOnUse" id="SVGID_2_" x1="134" x2="153.5" y1="39.6818" y2="39.6818"><stop offset="0" style="stop-color:#F7931E"/><stop offset="1" style="stop-color:#AF1259"/></linearGradient><circle class="st1" cx="143.8" cy="39.7" r="9.8"/><linearGradient gradientUnits="userSpaceOnUse" id="SVGID_3_" x1="172.4612" x2="180.25" y1="47.75" y2="47.75"><stop offset="0" style="stop-color:#F7931E"/><stop offset="1" style="stop-color:#AF1259"/></linearGradient><circle class="st2" cx="176.4" cy="47.8" r="3.9"/><linearGradient gradientUnits="userSpaceOnUse" id="SVGID_4_" x1="34.375" x2="46.375" y1="150.875" y2="150.875"><stop offset="0" style="stop-color:#F7931E"/><stop offset="1" style="stop-color:#AF1259"/></linearGradient><circle class="st3" cx="40.4" cy="150.9" r="6"/></svg>