<?xml version="1.0" ?><svg id="Слой_1" style="enable-background:new 0 0 200 200;" version="1.1" viewBox="0 0 200 200" xml:space="preserve" xmlns="http://www.w3.org/2000/svg" xmlns:xlink="http://www.w3.org/1999/xlink"><style type="text/css">
	.st0{fill:url(#SVGID_1_);}
	.st1{fill:url(#SVGID_2_);}
	.st2{fill:url(#SVGID_3_);}
	.st3{fill:url(#SVGID_4_);}
	.st4{fill:url(#SVGID_5_);}
	.st5{fill:url(#SVGID_6_);}
	.st6{fill:url(#SVGID_7_);}
	.st7{fill:url(#SVGID_8_);}
</style><g><linearGradient gradientUnits="userSpaceOnUse" id="SVGID_1_" x1="21.9663" x2="32.0718" y1="129.5292" y2="129.5292"><stop offset="0" style="stop-color:#F7931E"/><stop offset="1" style="stop-color:#AF1259"/></linearGradient><circle class="st0" cx="27" cy="129.5" r="5.1"/><linearGradient gradientUnits="userSpaceOnUse" id="SVGID_2_" x1="129.7363" x2="152.5052" y1="32.7444" y2="32.7444"><stop offset="0" style="stop-color:#F7931E"/><stop offset="1" style="stop-color:#AF1259"/></linearGradient><circle class="st1" cx="141.1" cy="32.7" r="11.4"/><linearGradient gradientUnits="userSpaceOnUse" id="SVGID_3_" x1="165.8986" x2="174.7927" y1="39.6818" y2="39.6818"><stop offset="0" style="stop-color:#F7931E"/><stop offset="1" style="stop-color:#AF1259"/></linearGradient><circle class="st2" cx="170.3" cy="39.7" r="4.4"/><linearGradient gradientUnits="userSpaceOnUse" id="SVGID_4_" x1="165.8986" x2="181.5522" y1="134.4047" y2="134.4047"><stop offset="0" style="stop-color:#F7931E"/><stop offset="1" style="stop-color:#AF1259"/></linearGradient><circle class="st3" cx="173.7" cy="134.4" r="7.8"/><g><linearGradient gradientUnits="userSpaceOnUse" id="SVGID_5_" x1="57.279" x2="151.0037" y1="107.5003" y2="107.5003"><stop offset="0" style="stop-color:#F7931E"/><stop offset="1" style="stop-color:#AF1259"/></linearGradient><path class="st4" d="M99.7,122.5c8,0.2,14.5-6.5,14.7-14.7c0.2-8.4-6.3-15.4-14.4-15.4c-7.9,0-14.3,6.6-14.4,14.8    C85.5,115.7,91.9,122.4,99.7,122.5z"/><linearGradient gradientUnits="userSpaceOnUse" id="SVGID_6_" x1="80.0129" x2="154.3357" y1="82.9314" y2="82.9314"><stop offset="0" style="stop-color:#F7931E"/><stop offset="1" style="stop-color:#AF1259"/></linearGradient><path class="st5" d="M115.5,87.4c0.4,1.2,1.5,2,2.8,2c1.1,0,2.2,0,3.2,0c1.2,0,2.3,0,3.5,0c1.5,0,2.7-1.4,2.7-3c0-2.3,0-4.7,0-7    c0-1.7-1.3-3-2.9-3c-2.2,0-4.5,0-6.7,0c-1.6,0-2.9,1.3-2.9,3c0,2.3,0,4.6,0,7C115.4,86.8,115.4,87.1,115.5,87.4z"/><linearGradient gradientUnits="userSpaceOnUse" id="SVGID_7_" x1="19.0849" x2="174.1202" y1="102.904" y2="102.904"><stop offset="0" style="stop-color:#F7931E"/><stop offset="1" style="stop-color:#AF1259"/></linearGradient><path class="st6" d="M172.5,85.5c-4.2-14.6-15.4-25.3-28.9-29.4c-9.3-2.8-17.6-8.4-24-15.7C104.8,23.7,80.9,16.4,58.1,24    c-27.5,9.2-43.9,38.1-37.8,66.4c2.3,10.8,7.5,20.1,14.4,27.4c4.4,4.6,6.2,11.1,4.6,17.4c-1.8,7.3-1.6,15.3,1.2,23    c6.6,18.7,26.3,29.8,45.7,25.8c4.2-0.8,8-2.3,11.5-4.2c5.6-3.1,12.3-3,17.8,0.3c7.8,4.7,17.6,6.1,27,2.7    c14.7-5.2,23.5-20.8,20.4-36.1c-0.4-2-1-3.9-1.7-5.8c-2.2-5.4-1-11.6,2.8-16.2C172.9,114.3,176.5,99.7,172.5,85.5z M135.5,137.2    c-0.1,0.3-0.1,0.7-0.2,1c-0.6,3-2.9,5.6-5.8,6.2c-0.4,0.1-0.7,0.1-1.1,0.2H71.6c-0.2,0-0.3-0.1-0.5-0.1c-3.1-0.4-5.7-2.9-6.4-6.1    c-0.1-0.4-0.1-0.8-0.2-1.1V77.7c0-0.1,0.1-0.3,0.1-0.4c0.4-3.3,2.8-6,5.9-6.7c0.3-0.1,0.7-0.1,1-0.2h57c0.1,0,0.3,0.1,0.4,0.1    c3.2,0.5,5.8,3,6.5,6.4c0.1,0.3,0.1,0.7,0.2,1V137.2z"/><linearGradient gradientUnits="userSpaceOnUse" id="SVGID_8_" x1="52.8473" x2="150.0038" y1="118.5319" y2="118.5319"><stop offset="0" style="stop-color:#F7931E"/><stop offset="1" style="stop-color:#AF1259"/></linearGradient><path class="st7" d="M121.9,110.3c-0.4,3.3-1.4,6.4-3.1,9.3c-1.7,2.9-3.8,5.2-6.5,7.1c-6.9,4.9-15.9,5.3-23.1,1    c-3.7-2.2-6.6-5.2-8.6-9c-3-5.8-3.5-11.8-1.7-18.1c-2.2,0-4.5,0-6.8,0v0.2c0,11,0,22,0,33c0,1.6,1.3,2.9,2.8,2.9    c16.7,0,33.3,0,50,0c1.5,0,2.8-1.4,2.8-2.9c0-11,0-21.9,0-32.9v-0.2H121C122,103.7,122.3,106.9,121.9,110.3z"/></g></g></svg>