<?xml version="1.0" ?><svg id="Слой_1" style="enable-background:new 0 0 200 200;" version="1.1" viewBox="0 0 200 200" xml:space="preserve" xmlns="http://www.w3.org/2000/svg" xmlns:xlink="http://www.w3.org/1999/xlink"><style type="text/css">
	.st0{fill:url(#SVGID_1_);}
	.st1{fill:url(#SVGID_2_);}
	.st2{fill:url(#SVGID_3_);}
	.st3{fill:url(#SVGID_4_);}
</style><g><linearGradient gradientTransform="matrix(0.9983 5.839395e-02 -5.839395e-02 0.9983 -7.7478 26.0733)" gradientUnits="userSpaceOnUse" id="SVGID_1_" x1="26.4401" x2="37.3866" y1="41.5725" y2="41.5725"><stop offset="0" style="stop-color:#F7931E"/><stop offset="1" style="stop-color:#AF1259"/></linearGradient><circle class="st0" cx="21.7" cy="69.4" r="5.5"/><linearGradient gradientTransform="matrix(0.9983 5.839395e-02 -5.839395e-02 0.9983 -7.7478 26.0733)" gradientUnits="userSpaceOnUse" id="SVGID_2_" x1="59.2012" x2="74.2013" y1="123.7101" y2="123.7101"><stop offset="0" style="stop-color:#F7931E"/><stop offset="1" style="stop-color:#AF1259"/></linearGradient><circle class="st1" cx="51.6" cy="153.5" r="7.5"/><linearGradient gradientTransform="matrix(0.9983 5.839395e-02 -5.839395e-02 0.9983 -7.7478 26.0733)" gradientUnits="userSpaceOnUse" id="SVGID_3_" x1="179.3467" x2="197.3761" y1="37.5902" y2="37.5902"><stop offset="0" style="stop-color:#F7931E"/><stop offset="1" style="stop-color:#AF1259"/></linearGradient><circle class="st2" cx="178.1" cy="74.6" r="9"/><linearGradient gradientUnits="userSpaceOnUse" id="SVGID_4_" x1="15.3854" x2="183.0204" y1="101.1318" y2="101.1318"><stop offset="0" style="stop-color:#F7931E"/><stop offset="1" style="stop-color:#AF1259"/></linearGradient><path class="st3" d="M166.1,82.2L166.1,82.2c-4.5-4.7-5.9-11.4-3.7-17.4c4.4-12,2-26-7.5-35.9c-8.8-9.3-21-12.7-32.7-10   c-10.8,2.5-22,2.3-32.7-0.9c-14-4.1-30.7-0.8-42.1,10.1C35.7,39.2,31.7,55.9,36,70.7c1.7,5.9-0.7,12.3-6.2,15.1   c-2.9,1.5-5.7,3.7-8,6.4c-8.2,9.5-8.6,23.6-1.1,33.6c5.4,7.2,13.5,10.8,21.6,10.9c10.4,0,19.8,6.2,24.4,15.5   c3.1,6.2,7.4,12,12.8,17.1c23.6,22.3,60,22.4,83.9,0.3C188.5,146.2,189.7,106.9,166.1,82.2z M137.1,82.9c0,0.8,0.1,1.5,0.1,2.3   c0,23.3-17.7,50.2-50.1,50.2c-9.9,0-19.2-2.9-27-7.9c1.4,0.2,2.8,0.2,4.2,0.2c8.2,0,15.8-2.8,21.8-7.6c-7.7-0.1-14.2-5.2-16.4-12.3   c1.1,0.2,2.2,0.3,3.3,0.3c1.6,0,3.2-0.2,4.6-0.6c-8-1.6-14.1-8.8-14.1-17.3c0-0.1,0-0.1,0-0.2c2.4,1.3,5.1,2.1,8,2.2   c-4.7-3.2-7.8-8.6-7.8-14.7c0-3.2,0.9-6.3,2.4-8.9c8.7,10.7,21.6,17.7,36.3,18.4c-0.3-1.3-0.5-2.6-0.5-4c0-9.8,7.9-17.7,17.6-17.7   c5.1,0,9.6,2.1,12.8,5.6c4-0.8,7.8-2.3,11.2-4.3c-1.3,4.1-4.1,7.6-7.7,9.8c3.6-0.4,6.9-1.4,10.1-2.8   C143.5,77.3,140.5,80.4,137.1,82.9z"/></g></svg>