<svg width="100" height="100" viewBox="0 0 100 100" fill="none" xmlns="http://www.w3.org/2000/svg">
<circle cx="50" cy="50" r="50" fill="#FFF4A3"/>
<path d="M45.1396 31.071L34.7656 25.8345L23.3806 31.5165L34.0351 36.867L45.1396 31.071Z" fill="#282A35"/>
<path d="M49.8947 33.4709L60.7712 38.9609L49.4867 44.6279L38.8157 39.2684L49.8947 33.4709Z" fill="#282A35"/>
<path d="M64.4207 25.9141L75.5942 31.5166L65.6012 36.5356L54.7021 31.0381L64.4207 25.9141Z" fill="#282A35"/>
<path d="M59.6115 23.5005L49.5526 18.4575L39.6016 23.4225L49.9665 28.65L59.6115 23.5005Z" fill="#282A35"/>
<path d="M51.7471 66.816V80.5425L63.933 74.4615L63.9195 60.729L51.7471 66.816Z" fill="#282A35"/>
<path d="M63.9151 55.9364L63.9016 42.3479L51.7471 48.3899V61.9829L63.9151 55.9364Z" fill="#282A35"/>
<path d="M78.5446 53.3894V67.1699L68.1511 72.3569L68.1436 58.6394L78.5446 53.3894Z" fill="#282A35"/>
<path d="M78.5446 48.5716V35.0686L68.1316 40.2451L68.1406 53.8606L78.5446 48.5716Z" fill="#282A35"/>
<path d="M47.4451 48.3901L39.2371 44.2636V62.1001C39.2371 62.1001 29.1991 40.7416 28.2691 38.8231C28.1491 38.5756 27.6556 38.3041 27.5296 38.2381C25.7296 37.2931 20.4556 34.6216 20.4556 34.6216V66.1336L27.7516 70.0336V53.5621C27.7516 53.5621 37.6831 72.6466 37.7836 72.8551C37.8841 73.0636 38.8816 75.0751 39.9466 75.7816C41.3656 76.7206 47.4466 80.3776 47.4466 80.3776L47.4451 48.3901Z" fill="#282A35"/>
</svg>
